G04 Layer_Physical_Order=2*
G04 Layer_Color=16711680*
%FSAX24Y24*%
%MOIN*%
G70*
G01*
G75*
%ADD18C,0.0250*%
%ADD20C,0.0500*%
%ADD21R,0.0600X0.0600*%
%ADD22C,0.0600*%
%ADD23C,0.0270*%
G36*
X102910Y044150D02*
X099718D01*
X099680Y044180D01*
X099680Y044200D01*
Y044351D01*
X100510D01*
X100586Y044366D01*
X100651Y044409D01*
X101064Y044823D01*
X101108Y044852D01*
X101137Y044896D01*
X101951Y045709D01*
X101994Y045774D01*
X102009Y045850D01*
Y046999D01*
X102019Y047050D01*
X102003Y047130D01*
X101958Y047198D01*
X101890Y047243D01*
X101810Y047259D01*
X101759Y047249D01*
X100742D01*
X100501Y047491D01*
X100436Y047534D01*
X100360Y047549D01*
X100092D01*
X099659Y047982D01*
Y049449D01*
X099669Y049500D01*
X099653Y049580D01*
X099608Y049648D01*
X099540Y049693D01*
X099460Y049709D01*
X099380Y049693D01*
X099312Y049648D01*
X099267Y049580D01*
X099251Y049500D01*
X099261Y049449D01*
Y047900D01*
X099276Y047824D01*
X099319Y047759D01*
X099869Y047209D01*
X099934Y047166D01*
X100010Y047151D01*
X100278D01*
X100519Y046909D01*
X100584Y046866D01*
X100660Y046851D01*
X101611D01*
Y045932D01*
X100856Y045177D01*
X100812Y045148D01*
X100783Y045104D01*
X100428Y044749D01*
X099680D01*
Y044920D01*
X099509D01*
Y045400D01*
X099494Y045476D01*
X099451Y045541D01*
X098678Y046313D01*
X098683Y046350D01*
X098672Y046434D01*
X098640Y046511D01*
X098588Y046578D01*
X098521Y046630D01*
X098444Y046662D01*
X098360Y046673D01*
X098276Y046662D01*
X098199Y046630D01*
X098132Y046578D01*
X098109Y046549D01*
X096218D01*
X096203Y046599D01*
X096208Y046602D01*
X096253Y046670D01*
X096269Y046750D01*
X096259Y046801D01*
Y047600D01*
X096244Y047676D01*
X096201Y047741D01*
X095801Y048141D01*
X095736Y048184D01*
X095660Y048199D01*
X095261D01*
X095210Y048209D01*
X095130Y048193D01*
X095062Y048148D01*
X095017Y048080D01*
X095001Y048000D01*
X095017Y047920D01*
X095062Y047852D01*
X095130Y047807D01*
X095210Y047791D01*
X095261Y047801D01*
X095578D01*
X095861Y047518D01*
Y047306D01*
X095811Y047279D01*
X095790Y047293D01*
X095710Y047309D01*
X095659Y047299D01*
X095160D01*
X095084Y047284D01*
X095019Y047241D01*
X094478Y046699D01*
X093460D01*
X093384Y046684D01*
X093319Y046641D01*
X092828Y046149D01*
X092061D01*
X092010Y046159D01*
X091930Y046143D01*
X091862Y046098D01*
X091817Y046030D01*
X091801Y045950D01*
X091817Y045870D01*
X091862Y045802D01*
X091930Y045757D01*
X092010Y045741D01*
X092061Y045751D01*
X092910D01*
X092986Y045766D01*
X093051Y045809D01*
X093542Y046301D01*
X094560D01*
X094636Y046316D01*
X094701Y046359D01*
X095242Y046901D01*
X095511D01*
Y046600D01*
X095526Y046524D01*
X095569Y046459D01*
X095819Y046209D01*
X095884Y046166D01*
X095960Y046151D01*
X098109D01*
X098132Y046122D01*
X098199Y046070D01*
X098276Y046038D01*
X098360Y046027D01*
X098397Y046032D01*
X099111Y045318D01*
Y044920D01*
X098940D01*
Y044200D01*
X098940Y044180D01*
X098902Y044150D01*
X098442D01*
X098432Y044200D01*
X098497Y044227D01*
X098574Y044286D01*
X098633Y044363D01*
X098670Y044453D01*
X098683Y044550D01*
X098670Y044647D01*
X098633Y044737D01*
X098574Y044814D01*
X098497Y044873D01*
X098407Y044910D01*
X098310Y044923D01*
X098213Y044910D01*
X098123Y044873D01*
X098046Y044814D01*
X097987Y044737D01*
X097950Y044647D01*
X097937Y044550D01*
X097950Y044453D01*
X097987Y044363D01*
X098046Y044286D01*
X098123Y044227D01*
X098188Y044200D01*
X098178Y044150D01*
X097520D01*
X097510Y044200D01*
X097512Y044201D01*
X097595Y044265D01*
X097659Y044348D01*
X097700Y044446D01*
X097707Y044500D01*
X097310D01*
X096913D01*
X096920Y044446D01*
X096961Y044348D01*
X097025Y044265D01*
X097108Y044201D01*
X097110Y044200D01*
X097100Y044150D01*
X090110D01*
Y049950D01*
X102910D01*
Y044150D01*
D02*
G37*
%LPC*%
G36*
X102360Y045423D02*
X102276Y045412D01*
X102199Y045380D01*
X102132Y045328D01*
X102080Y045261D01*
X102048Y045184D01*
X102037Y045100D01*
X102048Y045016D01*
X102080Y044939D01*
X102132Y044872D01*
X102199Y044820D01*
X102276Y044788D01*
X102360Y044777D01*
X102444Y044788D01*
X102521Y044820D01*
X102588Y044872D01*
X102640Y044939D01*
X102672Y045016D01*
X102683Y045100D01*
X102672Y045184D01*
X102640Y045261D01*
X102588Y045328D01*
X102521Y045380D01*
X102444Y045412D01*
X102360Y045423D01*
D02*
G37*
G36*
X095610Y045523D02*
X095526Y045512D01*
X095449Y045480D01*
X095382Y045428D01*
X095330Y045361D01*
X095298Y045284D01*
X095287Y045200D01*
X095298Y045116D01*
X095330Y045039D01*
X095382Y044972D01*
X095449Y044920D01*
X095526Y044888D01*
X095610Y044877D01*
X095694Y044888D01*
X095771Y044920D01*
X095838Y044972D01*
X095890Y045039D01*
X095922Y045116D01*
X095933Y045200D01*
X095922Y045284D01*
X095890Y045361D01*
X095838Y045428D01*
X095771Y045480D01*
X095694Y045512D01*
X095610Y045523D01*
D02*
G37*
G36*
X091360Y047859D02*
X091280Y047843D01*
X091212Y047798D01*
X091183Y047754D01*
X090419Y046991D01*
X090376Y046926D01*
X090361Y046850D01*
Y045300D01*
X090376Y045224D01*
X090419Y045159D01*
X090983Y044596D01*
X091012Y044552D01*
X091080Y044507D01*
X091160Y044491D01*
X091240Y044507D01*
X091308Y044552D01*
X091337Y044596D01*
X091642Y044901D01*
X093028D01*
X093133Y044796D01*
X093162Y044752D01*
X093230Y044707D01*
X093310Y044691D01*
X093390Y044707D01*
X093458Y044752D01*
X093487Y044796D01*
X093951Y045259D01*
X093994Y045324D01*
X094009Y045400D01*
Y045699D01*
X094019Y045750D01*
X094003Y045830D01*
X093958Y045898D01*
X093890Y045943D01*
X093810Y045959D01*
X093730Y045943D01*
X093662Y045898D01*
X093617Y045830D01*
X093601Y045750D01*
X093611Y045699D01*
Y045482D01*
X093310Y045181D01*
X093251Y045241D01*
X093186Y045284D01*
X093110Y045299D01*
X091560D01*
X091484Y045284D01*
X091419Y045241D01*
X091160Y044981D01*
X090759Y045382D01*
Y046768D01*
X091464Y047473D01*
X091508Y047502D01*
X091553Y047570D01*
X091569Y047650D01*
X091553Y047730D01*
X091508Y047798D01*
X091440Y047843D01*
X091360Y047859D01*
D02*
G37*
G36*
X097260Y044947D02*
X097206Y044940D01*
X097108Y044899D01*
X097025Y044835D01*
X096961Y044752D01*
X096920Y044654D01*
X096913Y044600D01*
X097260D01*
Y044947D01*
D02*
G37*
G36*
X097360D02*
Y044600D01*
X097707D01*
X097700Y044654D01*
X097659Y044752D01*
X097595Y044835D01*
X097512Y044899D01*
X097414Y044940D01*
X097360Y044947D01*
D02*
G37*
G36*
X099410Y046696D02*
Y046400D01*
X099706D01*
X099701Y046441D01*
X099666Y046527D01*
X099610Y046600D01*
X099537Y046656D01*
X099451Y046691D01*
X099410Y046696D01*
D02*
G37*
G36*
X099960Y048509D02*
X099880Y048493D01*
X099812Y048448D01*
X099767Y048380D01*
X099751Y048300D01*
X099767Y048220D01*
X099812Y048152D01*
X099880Y048107D01*
X099960Y048091D01*
X100011Y048101D01*
X101228D01*
X101483Y047846D01*
X101512Y047802D01*
X101580Y047757D01*
X101660Y047741D01*
X101740Y047757D01*
X101808Y047802D01*
X101853Y047870D01*
X101869Y047950D01*
X101853Y048030D01*
X101808Y048098D01*
X101764Y048127D01*
X101451Y048441D01*
X101386Y048484D01*
X101310Y048499D01*
X100011D01*
X099960Y048509D01*
D02*
G37*
G36*
X098660Y049873D02*
X098576Y049862D01*
X098499Y049830D01*
X098432Y049778D01*
X098380Y049711D01*
X098348Y049634D01*
X098337Y049550D01*
X098348Y049466D01*
X098380Y049389D01*
X098432Y049322D01*
X098499Y049270D01*
X098576Y049238D01*
X098660Y049227D01*
X098744Y049238D01*
X098821Y049270D01*
X098888Y049322D01*
X098940Y049389D01*
X098972Y049466D01*
X098983Y049550D01*
X098972Y049634D01*
X098940Y049711D01*
X098888Y049778D01*
X098821Y049830D01*
X098744Y049862D01*
X098660Y049873D01*
D02*
G37*
G36*
X099310Y046300D02*
X099014D01*
X099019Y046259D01*
X099054Y046173D01*
X099110Y046100D01*
X099183Y046044D01*
X099269Y046009D01*
X099310Y046004D01*
Y046300D01*
D02*
G37*
G36*
X099706D02*
X099410D01*
Y046004D01*
X099451Y046009D01*
X099537Y046044D01*
X099610Y046100D01*
X099666Y046173D01*
X099701Y046259D01*
X099706Y046300D01*
D02*
G37*
G36*
X099310Y046696D02*
X099269Y046691D01*
X099183Y046656D01*
X099110Y046600D01*
X099054Y046527D01*
X099019Y046441D01*
X099014Y046400D01*
X099310D01*
Y046696D01*
D02*
G37*
%LPD*%
D18*
Y044550D02*
X100510D01*
X100960Y045000D01*
X101810Y045850D01*
Y047050D01*
X100660D02*
X101810D01*
X099960Y048300D02*
X101310D01*
X101660Y047950D01*
X092010Y045950D02*
X092910D01*
X093460Y046500D01*
X094560D01*
X095160Y047100D01*
X095710D01*
X096060Y046750D02*
Y047600D01*
X095660Y048000D02*
X096060Y047600D01*
X095210Y048000D02*
X095660D01*
X095710Y046600D02*
Y047100D01*
Y046600D02*
X095960Y046350D01*
X093810Y045400D02*
Y045750D01*
X093310Y044900D02*
X093810Y045400D01*
X091160Y044700D02*
X091560Y045100D01*
X093110D01*
X093310Y044900D01*
X090560Y046850D02*
X091360Y047650D01*
X090560Y045300D02*
Y046850D01*
Y045300D02*
X091160Y044700D01*
X100010Y047350D02*
X100360D01*
X100660Y047050D01*
X099460Y047900D02*
X100010Y047350D01*
X099460Y047900D02*
Y049500D01*
X099310Y044550D02*
Y045400D01*
X095960Y046350D02*
X098360D01*
X099310Y045400D01*
D20*
X099360Y046350D02*
D03*
X098360D02*
D03*
X102360Y045100D02*
D03*
X098660Y049550D02*
D03*
X095610Y045200D02*
D03*
D21*
X099310Y044550D02*
D03*
D22*
X097310D02*
D03*
X098310D02*
D03*
D23*
X092010Y045950D02*
D03*
X091160Y044700D02*
D03*
X094460Y047200D02*
D03*
X095710Y047100D02*
D03*
X093810Y045750D02*
D03*
X097560Y048250D02*
D03*
X095210Y048000D02*
D03*
X095410Y049150D02*
D03*
X098760Y047050D02*
D03*
X097960Y045900D02*
D03*
X096310Y044800D02*
D03*
X100260Y046800D02*
D03*
X101660Y047950D02*
D03*
X099960Y048300D02*
D03*
X100760Y049550D02*
D03*
X101360Y049150D02*
D03*
X099460Y049500D02*
D03*
X101710Y044950D02*
D03*
X099860Y045550D02*
D03*
X101810Y047050D02*
D03*
X091960Y046800D02*
D03*
X091110Y046500D02*
D03*
X091360Y047650D02*
D03*
X093310Y044900D02*
D03*
X096060Y046750D02*
D03*
X100960Y045000D02*
D03*
X092010Y044650D02*
D03*
X091160Y048000D02*
D03*
X090310Y049750D02*
D03*
X102710D02*
D03*
Y044350D02*
D03*
X090310D02*
D03*
X094610Y045700D02*
D03*
X094160Y044700D02*
D03*
X093310Y046800D02*
D03*
X094260Y048350D02*
D03*
X092860Y048100D02*
D03*
X093410Y049750D02*
D03*
X096010Y049800D02*
D03*
X090310Y047400D02*
D03*
X097410Y046700D02*
D03*
X096860Y048000D02*
D03*
X097960Y045000D02*
D03*
X099060Y047700D02*
D03*
X100810Y048750D02*
D03*
X102760Y046900D02*
D03*
X099110Y049750D02*
D03*
X092260Y048850D02*
D03*
M02*
