G04 Layer_Color=65535*
%FSAX24Y24*%
%MOIN*%
G70*
G01*
G75*
%ADD17C,0.0100*%
%ADD24C,0.0098*%
%ADD25C,0.0079*%
%ADD26C,0.0060*%
%ADD27C,0.0080*%
D17*
X101367Y045077D02*
G03*
X101367Y045077I-000012J000000D01*
G01*
X098460Y045900D02*
X098760D01*
X098610Y045750D02*
Y046050D01*
D24*
X101716Y048748D02*
G03*
X101716Y048748I-000049J000000D01*
G01*
X092966Y047498D02*
G03*
X092966Y047498I-000049J000000D01*
G01*
X093016Y046048D02*
G03*
X093016Y046048I-000049J000000D01*
G01*
X095761Y046356D02*
G03*
X095761Y046356I-000049J000000D01*
G01*
X096861Y048406D02*
G03*
X096861Y048406I-000049J000000D01*
G01*
X099066Y048498D02*
G03*
X099066Y048498I-000049J000000D01*
G01*
D25*
X102316Y047425D02*
Y047685D01*
X101995Y047425D02*
X102316D01*
Y048315D02*
Y048575D01*
X101995D02*
X102316D01*
X093566Y046175D02*
Y046435D01*
X093245Y046175D02*
X093566D01*
Y047065D02*
Y047325D01*
X093245D02*
X093566D01*
X093616Y044725D02*
Y044985D01*
X093295Y044725D02*
X093616D01*
Y045615D02*
Y045875D01*
X093295D02*
X093616D01*
X096775Y047006D02*
X097035D01*
Y046685D02*
Y047006D01*
X095885D02*
X096145D01*
X095885Y046685D02*
Y047006D01*
X096303Y048039D02*
X096617D01*
X097875Y049056D02*
X098135D01*
Y048735D02*
Y049056D01*
X096985D02*
X097245D01*
X096985Y048735D02*
Y049056D01*
X099666Y047175D02*
Y047435D01*
X099345Y047175D02*
X099666D01*
Y048065D02*
Y048325D01*
X099345D02*
X099666D01*
X100503Y046263D02*
X100817D01*
X100203Y049161D02*
X100517D01*
X094653Y046726D02*
X094967D01*
X091669Y047984D02*
Y049716D01*
X091315Y047984D02*
X093205D01*
X091315D02*
Y049716D01*
X093205D01*
Y047984D02*
Y049716D01*
X100571Y045243D02*
Y045557D01*
X100749Y047043D02*
Y047357D01*
X097649Y049543D02*
Y049857D01*
X097521Y047693D02*
Y048007D01*
X097171Y045693D02*
Y046007D01*
X091471Y044893D02*
Y045207D01*
X094649Y045143D02*
Y045457D01*
X092099Y046193D02*
Y046507D01*
X090771Y045993D02*
Y046307D01*
D26*
X096283Y047957D02*
Y048039D01*
X096637Y047957D02*
Y048039D01*
X100837Y046263D02*
Y046345D01*
X100483Y046263D02*
Y046345D01*
X100537Y049161D02*
Y049243D01*
X100183Y049161D02*
Y049243D01*
X094987Y046726D02*
Y046808D01*
X094633Y046726D02*
Y046808D01*
X100571Y045223D02*
X100653D01*
X100571Y045577D02*
X100653D01*
X100667Y047377D02*
X100749D01*
X100667Y047023D02*
X100749D01*
X097567Y049877D02*
X097649D01*
X097567Y049523D02*
X097649D01*
X097521Y047673D02*
X097603D01*
X097521Y048027D02*
X097603D01*
X097171Y045673D02*
X097253D01*
X097171Y046027D02*
X097253D01*
X091471Y044873D02*
X091553D01*
X091471Y045227D02*
X091553D01*
X094567Y045477D02*
X094649D01*
X094567Y045123D02*
X094649D01*
X092017Y046527D02*
X092099D01*
X092017Y046173D02*
X092099D01*
X090771Y045973D02*
X090853D01*
X090771Y046327D02*
X090853D01*
D27*
X099760Y046150D02*
Y045817D01*
X099827Y045750D01*
X099960D01*
X100027Y045817D01*
Y046150D01*
X100160Y045750D02*
X100293D01*
X100227D01*
Y046150D01*
X100160Y046083D01*
X096227Y044700D02*
X096093D01*
X096160D01*
Y044367D01*
X096093Y044300D01*
X096027D01*
X095960Y044367D01*
X096360Y044300D02*
X096493D01*
X096427D01*
Y044700D01*
X096360Y044633D01*
X093510Y047900D02*
Y047500D01*
X093710D01*
X093777Y047567D01*
Y047833D01*
X093710Y047900D01*
X093510D01*
X093910Y047500D02*
X094043D01*
X093977D01*
Y047900D01*
X093910Y047833D01*
M02*
