M48
;Layer_Color=9474304
;FILE_FORMAT=2:4
INCH
;TYPE=PLATED
T1F00S00C0.0130
T2F00S00C0.0280
T3F00S00C0.0290
T4F00S00C0.0390
%
T01
X090310Y044350
X091160Y044700
X092010Y044650
Y045950
X091960Y046800
X091110Y046500
X093310Y046800
Y044900
X094160Y044700
X093810Y045750
X094610Y045700
X096060Y046750
X097410Y046700
X097960Y045900
Y045000
X096310Y044800
X099860Y045550
X100260Y046800
X100960Y045000
X101710Y044950
X102710Y044350
X102760Y046900
X101810Y047050
X101660Y047950
X101360Y049150
X100810Y048750
X100760Y049550
X099460Y049500
X099110Y049750
X099060Y047700
X098760Y047050
X097560Y048250
X096860Y048000
X095210
X094260Y048350
X094460Y047200
X095710Y047100
X095410Y049150
X096010Y049800
X099960Y048300
X102710Y049750
X093410
X092260Y048850
X092860Y048100
X091160Y048000
X091360Y047650
X090310Y047400
Y049750
T02
X098360Y046350
X099360
T03
X095610Y045200
X102360Y045100
X098660Y049550
T04
X097310Y044550
X098310
X099310
M30
